<svg width="30" height="30" viewBox="0 0 30 30" fill="none" xmlns="http://www.w3.org/2000/svg">
<path d="M0 28.5V24C0 23.675 0.0499999 23.3625 0.15 23.0625C0.25 22.7625 0.4 22.475 0.6 22.2L13.125 5.32502L11.4 3.00002C11.275 2.82502 11.1875 2.64402 11.1375 2.45702C11.0875 2.27002 11.075 2.08252 11.1 1.89452C11.125 1.70652 11.1875 1.52502 11.2875 1.35002C11.3875 1.17502 11.525 1.02502 11.7 0.900024C12.05 0.650024 12.425 0.550024 12.825 0.600024C13.225 0.650024 13.55 0.850024 13.8 1.20002L15 2.81252L16.2 1.20002C16.45 0.850024 16.775 0.650024 17.175 0.600024C17.575 0.550024 17.95 0.650024 18.3 0.900024C18.65 1.15002 18.85 1.47502 18.9 1.87502C18.95 2.27502 18.85 2.65002 18.6 3.00002L16.875 5.32502L29.4 22.2C29.6 22.475 29.75 22.7625 29.85 23.0625C29.95 23.3625 30 23.675 30 24V28.5C30 28.925 29.8565 29.2815 29.5695 29.5695C29.2825 29.8575 28.926 30.001 28.5 30H1.5C1.075 30 0.719 29.856 0.432 29.568C0.145 29.28 0.001 28.924 0 28.5ZM9.3375 27H20.6625L15 19.0875L9.3375 27Z" fill="#04101C"/>
</svg>
