<svg width="34" height="24" viewBox="0 0 34 24" fill="none" xmlns="http://www.w3.org/2000/svg">
<path d="M24.3937 0.415649L23.1281 0.42922L23.1576 3.17C19.9392 4.1041 15.5264 4.55783 11.4524 4.82748C13.9202 11.5974 18.4384 17.0457 22.5509 22.9069C24.0076 21.5249 26.1446 20.6581 28.4192 20.375C26.9567 19.1017 25.8433 18.4086 24.2825 15.4223C26.4811 18.0298 27.9794 18.8301 29.7403 19.7821C29.9698 18.8614 30.3688 18.0497 31.0567 17.4847C31.6661 16.9841 32.4647 16.7356 33.4142 16.7574C30.1184 12.5553 26.2656 8.52704 24.4262 3.43775L24.3937 0.415649ZM10.4785 1.23655L9.21302 1.2537C9.21302 1.2537 9.2306 2.54324 9.2524 3.85316C9.26337 4.50819 9.27525 5.16821 9.28678 5.67629C9.291 5.86163 9.29501 5.99832 9.29902 6.13627C6.88181 12.0238 4.43663 17.4561 0.585892 22.5502C2.95085 22.4526 5.24944 22.4656 7.51533 22.5473C9.0807 18.1445 9.15684 13.0653 10.0204 8.34374C10.8231 13.1645 10.7633 18.1485 12.3746 22.8162C15.3954 23.0329 18.3997 23.3223 21.4695 23.5844C17.5553 18.0191 13.1577 12.6834 10.5628 6.05092C10.5593 5.92562 10.5558 5.81213 10.5521 5.64753C10.5407 5.14438 10.5287 4.48576 10.5178 3.83206C10.496 2.52467 10.4785 1.23655 10.4785 1.23655Z" fill="#04101C"/>
</svg>
