<svg width="18" height="21" viewBox="0 0 18 21" fill="none" xmlns="http://www.w3.org/2000/svg">
<path fill-rule="evenodd" clip-rule="evenodd" d="M8.46963 20.3188L8.47316 20.32C8.7049 20.4211 8.83429 20.3976 8.83429 20.3976C8.83429 20.3976 8.96369 20.4211 9.1966 20.32L9.19896 20.3188L9.20601 20.3153L9.22719 20.3059C9.33879 20.2539 9.44901 20.199 9.55774 20.1412C9.77653 20.0283 10.0824 19.8589 10.4482 19.6318C11.1775 19.1801 12.148 18.4955 13.1232 17.5556C15.0712 15.6782 17.0686 12.7432 17.0686 8.63431C17.0686 7.55297 16.8556 6.48221 16.4418 5.48317C16.028 4.48414 15.4215 3.5764 14.6568 2.81177C13.8922 2.04714 12.9845 1.44061 11.9854 1.02679C10.9864 0.612981 9.91564 0.399994 8.83429 0.399994C7.75295 0.399994 6.68219 0.612981 5.68316 1.02679C4.68412 1.44061 3.77638 2.04714 3.01175 2.81177C2.24712 3.5764 1.64059 4.48414 1.22678 5.48317C0.812963 6.48221 0.599976 7.55297 0.599976 8.63431C0.599976 12.7421 2.59739 15.6782 4.54657 17.5556C5.36247 18.3396 6.25868 19.0355 7.22037 19.6318C7.59292 19.8629 7.97604 20.0764 8.36847 20.2718L8.4414 20.3059L8.46257 20.3153L8.46963 20.3188ZM8.83429 11.2811C9.53625 11.2811 10.2095 11.0022 10.7058 10.5058C11.2022 10.0095 11.481 9.33627 11.481 8.63431C11.481 7.93235 11.2022 7.25914 10.7058 6.76278C10.2095 6.26642 9.53625 5.98757 8.83429 5.98757C8.13233 5.98757 7.45912 6.26642 6.96276 6.76278C6.4664 7.25914 6.18755 7.93235 6.18755 8.63431C6.18755 9.33627 6.4664 10.0095 6.96276 10.5058C7.45912 11.0022 8.13233 11.2811 8.83429 11.2811Z" fill="#D5D5D5"/>
</svg>
