<svg width="18" height="16" viewBox="0 0 18 16" fill="none" xmlns="http://www.w3.org/2000/svg">
<path d="M11.3296 6.17143C12.9667 6.17143 13.9741 4 13.9741 2.62857C13.9741 1.48571 13.3444 0.114286 12.0852 0.114286C10.4481 0.114286 9.44074 2.28571 9.44074 3.65714C9.44074 4.8 10.0704 6.17143 11.3296 6.17143ZM6.54445 6.17143C7.8037 6.17143 8.43333 4.8 8.43333 3.65714C8.43333 2.17143 7.42593 0 5.78889 0C4.52963 0 3.9 1.37143 3.9 2.51429C3.77407 4 4.78148 6.17143 6.54445 6.17143ZM15.863 5.02857C14.2259 5.02857 13.0926 7.08571 13.0926 8.57143C13.0926 9.6 13.5963 10.6286 14.7296 10.6286C16.3667 10.6286 17.5 8.57143 17.5 7.08571C17.5 6.05714 16.8704 5.02857 15.863 5.02857ZM4.90741 8.57143C4.90741 7.08571 3.64815 5.02857 2.13704 5.02857C1.0037 5.02857 0.5 6.05714 0.5 7.08571C0.5 8.57143 1.75926 10.6286 3.27037 10.6286C4.4037 10.6286 4.90741 9.6 4.90741 8.57143ZM8.93704 8.34286C6.41852 8.34286 3.01852 12 3.01852 14.5143C3.01852 15.6571 3.9 16 4.90741 16C6.41852 16 7.55185 15.0857 8.93704 15.0857C10.1963 15.0857 11.3296 16 12.7148 16C13.7222 16 14.8556 15.7714 14.8556 14.5143C14.8556 12 11.4556 8.34286 8.93704 8.34286Z" fill="#D5D5D5"/>
</svg>
