<svg width="18" height="18" viewBox="0 0 18 18" fill="none" xmlns="http://www.w3.org/2000/svg">
<path d="M12.4916 0C12.7464 0 12.9908 0.101236 13.171 0.281439C13.3512 0.461641 13.4525 0.706047 13.4525 0.960892V1.92178H15.3743C15.8591 1.92163 16.3261 2.10474 16.6816 2.43442C17.0371 2.76409 17.2549 3.21596 17.2912 3.69943L17.2961 3.84357V15.3743C17.2962 15.8591 17.1131 16.3261 16.7834 16.6816C16.4537 17.0371 16.0019 17.2549 15.5184 17.2912L15.3743 17.2961H1.92178C1.43694 17.2962 0.969956 17.1131 0.614444 16.7834C0.258932 16.4537 0.0411679 16.0019 0.00480466 15.5184L9.63467e-08 15.3743V3.84357C-0.000153338 3.35872 0.18296 2.89174 0.512633 2.53623C0.842306 2.18072 1.29417 1.96295 1.77765 1.92659L1.92178 1.92178H3.84357V0.960892C3.84357 0.706047 3.9448 0.461641 4.12501 0.281439C4.30521 0.101236 4.54961 0 4.80446 0C5.0593 0 5.30371 0.101236 5.48391 0.281439C5.66411 0.461641 5.76535 0.706047 5.76535 0.960892V1.92178H11.5307V0.960892C11.5307 0.706047 11.6319 0.461641 11.8121 0.281439C11.9923 0.101236 12.2367 0 12.4916 0ZM11.3616 6.12953L7.28548 10.2056L5.92582 8.84693C5.74459 8.6719 5.50187 8.57504 5.24993 8.57723C4.99798 8.57942 4.75698 8.68048 4.57882 8.85863C4.40067 9.03679 4.29961 9.2778 4.29742 9.52974C4.29523 9.78168 4.39208 10.0244 4.56712 10.2056L6.59844 12.2379C6.68857 12.3281 6.7956 12.3997 6.9134 12.4485C7.03121 12.4973 7.15748 12.5225 7.285 12.5225C7.41252 12.5225 7.53879 12.4973 7.6566 12.4485C7.7744 12.3997 7.88143 12.3281 7.97156 12.2379L12.7203 7.48823C12.8121 7.39959 12.8853 7.29356 12.9356 7.17633C12.986 7.0591 13.0125 6.93301 13.0136 6.80542C13.0147 6.67783 12.9904 6.5513 12.9421 6.43321C12.8938 6.31512 12.8224 6.20784 12.7322 6.11762C12.642 6.0274 12.5347 5.95605 12.4166 5.90773C12.2985 5.85942 12.172 5.83511 12.0444 5.83622C11.9168 5.83732 11.7907 5.86383 11.6735 5.91419C11.5563 5.96455 11.4502 6.03775 11.3616 6.12953Z" fill="#D5D5D5"/>
</svg>
