<svg width="26" height="26" viewBox="0 0 26 26" fill="none" xmlns="http://www.w3.org/2000/svg">
<path d="M25.5431 23.3369L19.6625 17.4563C21.0783 15.5715 21.8426 13.2773 21.84 10.92C21.84 4.89875 16.9413 0 10.92 0C4.89875 0 0 4.89875 0 10.92C0 16.9413 4.89875 21.84 10.92 21.84C13.2773 21.8426 15.5715 21.0783 17.4563 19.6625L23.3369 25.5431C23.6346 25.8092 24.0228 25.9513 24.4219 25.9401C24.821 25.9289 25.2007 25.7654 25.4831 25.4831C25.7654 25.2007 25.9289 24.821 25.9401 24.4219C25.9513 24.0228 25.8092 23.6346 25.5431 23.3369ZM3.12 10.92C3.12 9.37731 3.57746 7.86926 4.43454 6.58655C5.29161 5.30385 6.50981 4.3041 7.93507 3.71374C9.36033 3.12338 10.9287 2.96891 12.4417 3.26988C13.9548 3.57084 15.3446 4.31372 16.4354 5.40457C17.5263 6.49542 18.2692 7.88524 18.5701 9.3983C18.8711 10.9113 18.7166 12.4797 18.1263 13.9049C17.5359 15.3302 16.5362 16.5484 15.2535 17.4055C13.9707 18.2625 12.4627 18.72 10.92 18.72C8.85207 18.7175 6.86955 17.8949 5.40731 16.4327C3.94506 14.9704 3.12248 12.9879 3.12 10.92Z" fill="#04101C"/>
</svg>
